<?xml version="1.0" encoding="UTF-8"?>
<svg xmlns="http://www.w3.org/2000/svg" onmouseup="{ if(window.parent.document.onmouseup) window.parent.document.onmouseup(arguments[0]);}" xml:space="preserve" style="enable-background:new 0 0 36 36;" viewBox="0 0 36 36" y="0px" x="0px" id="Layer_1" version="1.1" xmlns:xlink="http://www.w3.org/1999/xlink"><style type="text/css">
	.st0{fill:none;}
	.st1{fill:#8B1E41;}
</style><rect data-cppathid="10000" height="36.1" width="36.1" class="st0" y="-0.1" x="-0.1"/><path data-cppathid="10001" d="M15.7,25.8c0-1.3,1-2.3,2.2-2.3c0.1,0,0.1,0,0.2,0c1.2-0.1,2.3,0.8,2.4,2.1c0,0.1,0,0.2,0,0.2  c0,1.2-0.9,2.2-2.1,2.2c-0.1,0-0.2,0-0.3,0c-1.2,0.1-2.3-0.8-2.4-2C15.7,26,15.7,25.9,15.7,25.8z M20.1,8.8c0.1,0.1,0.2,0.2,0.2,0.4  v2.1c0,2.8-0.6,8-0.7,9c0,0.1,0,0.2-0.2,0.2h-2.7c-0.1,0-0.2-0.1-0.2-0.2c-0.1-0.9-0.6-6.1-0.6-8.9V9.3c0-0.1,0-0.3,0.2-0.4  c0.6-0.3,1.3-0.4,2-0.4C18.8,8.5,19.5,8.6,20.1,8.8z M35,18c0,9.4-7.6,17-17,17S1,27.4,1,18S8.6,1,18,1l0,0C27.4,1,35,8.6,35,18z   M31.3,18c0-7.4-6-13.3-13.3-13.3S4.7,10.6,4.7,18s6,13.3,13.3,13.3l0,0C25.4,31.3,31.3,25.4,31.3,18L31.3,18z" class="st1"/></svg>